<svg id="Airin_s_Murals" data-name="Airin’s Murals" xmlns="http://www.w3.org/2000/svg" viewBox="0 0 184.63 49.63"><title>im-logo</title><path d="M29.84,24.79a.63.63,0,0,1-.48.24.66.66,0,0,1-.24,0c-.45-.12-2.91-.24-5.94-.33-.84,3.54-1.68,7.14-2.37,10.41C19.28,42.1,19,44.89,19,46c.06-.12.18-.27.27-.45a.58.58,0,0,1,.78-.21.53.53,0,0,1,.21.78c-.42.72-.9,1.47-1.5,1.47a1.07,1.07,0,0,1-.3-.06c-1.08-.45-1.08-3.06,3.57-22.86-2-.06-4.14-.12-6.09-.15-.48,0-.93,0-1.35,0a107.1,107.1,0,0,1-7,12C5.69,39,4.07,38.56,3.29,38.08.08,36.22-1.08,27.64,1.17,22.51c1.79-4.08,5.36-5.52,10-4a.54.54,0,0,1,.36.71.56.56,0,0,1-.72.37C8,18.64,4.19,18.53,2.21,23c-2.27,5.19-.59,12.78,1.65,14.1.85.48,1.77,0,2.76-1.29a98.48,98.48,0,0,0,6.66-11.37c-4.89-.15-7.89-.24-8.52-.36A.58.58,0,0,1,5,22.93c.6.12,4.59.25,8.91.36,1.35-2.57,2.7-5.24,4-7.79C24.32,2.75,26.09-.43,27.47.05c.69.27.75,1.23.63,2.55a46.54,46.54,0,0,1-1.05,5.82c-.36,1.71-1.05,4.5-1.83,7.74-.57,2.27-1.17,4.79-1.77,7.37,5,.15,6,.27,6.24.45A.59.59,0,0,1,29.84,24.79ZM22.28,23.5c.54-2.3,1.14-4.82,1.8-7.61.81-3.24,1.47-6,1.86-7.71,1-4.53,1.11-6.21,1-6.81C25.61,2.72,21.92,10,18.89,16c-1.2,2.4-2.46,4.88-3.72,7.31H16C18.5,23.39,20.57,23.44,22.28,23.5Z" style="fill:#f73848"/><path d="M40.4,24.1c-1.5,2.4-5,6.45-7.19,6.45a1.86,1.86,0,0,1-.63-.12c-1.38-.6-1.5-2.82-.42-7a.53.53,0,0,1,.69-.43.57.57,0,0,1,.42.69c-1.29,5.1-.37,5.67-.25,5.7,1,.45,4.38-2.64,6.39-5.88a.61.61,0,0,1,.81-.18A.59.59,0,0,1,40.4,24.1Zm-7-4.65c1.26-.38,1.29,1.54-.24,1.44C31.94,20.83,32.75,19.66,33.38,19.45Z" style="fill:#f73848"/><path d="M52.1,24.1c-2,4.14-6.09,11.52-8.52,11.52a.86.86,0,0,1-.39-.09c-.84-.33-1.08-1.47-.77-3.72a56.5,56.5,0,0,1,2.21-8.58s-.06,0-.09,0c-1.23.81-3.27,2.16-4.89,1.08S38.1,21.2,39.56,19c.69-1.09,2.28-2.92,3.33-2.25.72.41,1,1.58-2,6.89.94.12,2.19-.72,3.07-1.29s1.34-.89,1.82-.54.24,1,.15,1.26c-3.36,10.41-2.31,11.4-2.28,11.46.72.09,4-3.63,7.44-10.86a.61.61,0,0,1,.78-.3A.57.57,0,0,1,52.1,24.1ZM39.87,22.93c1.92-3.33,2.27-4.65,2.34-5.13a6.44,6.44,0,0,0-2.46,3.48A1.8,1.8,0,0,0,39.87,22.93Z" style="fill:#f73848"/><path d="M59.42,24.1c-1.5,2.4-5,6.45-7.19,6.45a1.86,1.86,0,0,1-.63-.12c-1.39-.6-1.5-2.82-.43-7a.55.55,0,0,1,.7-.43.57.57,0,0,1,.42.69c-1.29,5.1-.37,5.67-.25,5.7,1,.45,4.38-2.64,6.39-5.88a.61.61,0,0,1,.81-.18A.59.59,0,0,1,59.42,24.1Zm-7-4.65c1.27-.38,1.29,1.54-.23,1.44C51,20.83,51.77,19.66,52.4,19.45Z" style="fill:#f73848"/><path d="M70.34,24.22c-1.89,3.33-3.3,5.19-4.83,5-1-.12-1.77-1.14-2.37-3.24-.6-1.95-1-2.07-1.08-2.07-.27,0-1.38.48-4.23,7.5a.57.57,0,0,1-.54.36,1,1,0,0,0-.12,0,.55.55,0,0,1-.44-.63A68,68,0,0,1,59,22l.29-1a.59.59,0,0,1,.72-.4.56.56,0,0,1,.39.73c-.09.29-.17.65-.3,1-.3,1.05-.66,2.31-1,3.6,1.36-2.55,2.25-3.18,3.06-3.15,1.11.06,1.68,1.44,2.13,2.94.6,2.1,1.17,2.37,1.41,2.4,1.08.12,3-3.18,3.66-4.44a.63.63,0,0,1,.81-.21A.58.58,0,0,1,70.34,24.22Z" style="fill:#f73848"/><path d="M73.34,14.9c0,1.11-1.11,2.46-2.16,3.24a.85.85,0,0,1-.36.12.58.58,0,0,1-.45-.25.56.56,0,0,1,.12-.81,4.07,4.07,0,0,0,1.71-2.3.23.23,0,0,0-.12-.24.57.57,0,0,1-.12-.82.56.56,0,0,1,.81-.11A1.36,1.36,0,0,1,73.34,14.9Z" style="fill:#f73848"/><path d="M86.93,24.07c-2.34,2.73-6,7.05-6.66,7.83-.36.45-.69.87-1,1.29a8.09,8.09,0,0,1-2.52,7.89,2.58,2.58,0,0,1-1.55.72,1,1,0,0,1-.75-.3C73.13,40.21,75.68,36.13,78,33a7.81,7.81,0,0,0-1-2.22c-1.62-2.46-3-4.65-2.88-6.48a4.55,4.55,0,0,1,2.22-3.72,3.74,3.74,0,0,1,3.48-.33.63.63,0,0,1,.27.79.59.59,0,0,1-.78.27,2.53,2.53,0,0,0-2.37.26,3.33,3.33,0,0,0-1.65,2.79c-.09,1.47,1.2,3.57,2.67,5.76a11.22,11.22,0,0,1,.93,1.77c.18-.24.36-.45.51-.66.63-.78,4.35-5.13,6.69-7.86a.57.57,0,1,1,.87.75ZM78.29,34.54c-2.76,3.93-3.18,5.7-3.06,6.09A3.64,3.64,0,0,0,77.12,39,7.2,7.2,0,0,0,78.29,34.54Z" style="fill:#f73848"/><path d="M129.23,26.92c-1.17,6.36-2.58,14.07-2.49,16.38a4.4,4.4,0,0,1,.27-.45.53.53,0,0,1,.78-.21.55.55,0,0,1,.21.78c-.48.81-1,1.68-1.77,1.41-1.14-.45-.87-3.15,1.86-18.09,1.59-8.73,3.39-18.62,3.15-22.4-.09-1.14-.36-1.68-.6-1.71h0c-.63,0-2.55,1.56-5.58,7.62A142.34,142.34,0,0,0,116.24,34a.6.6,0,0,1-.69.42.62.62,0,0,1-.45-.66,138.86,138.86,0,0,0,2.25-18.56c.12-5.1-.81-5.37-.84-5.4s-2-.27-7.35,12a223,223,0,0,0-9.3,26.43v0c-.27.75-.51,1.38-1,1.38a.59.59,0,0,1-.21,0c-.57-.18-.51-.81-.3-2.19.12-.93.39-2.28.72-4,.6-3,1.47-7.17,2.64-12.42,2.1-9.66,4.41-19.55,5-21.89,1-4.14.24-5,0-5.13-.42-.27-1.41.09-2.55,1C100.19,8,95.24,16,96.62,20.08c.57,1.71,2.25,2.61,5,2.64a.58.58,0,0,1,.57.6.59.59,0,0,1-.57.57h0c-2.25-.06-5.13-.66-6.06-3.44-1-2.94.75-6.84,1.86-8.91A25.43,25.43,0,0,1,103.43,4c2-1.59,3.24-1.44,3.87-1,1.17.75,1.32,2.82.48,6.36-1.32,5.48-5.31,22.94-7.29,32.75a219,219,0,0,1,7.62-20.76c5.79-13.28,8-12.8,8.67-12.65,1.44.33,2.73,2.76.69,17.45,4.89-14.78,10.29-24.95,13.32-24.62.93.09,1.47,1,1.59,2.76C132.62,8.18,130.88,17.72,129.23,26.92Z" style="fill:#f73848"/><path d="M145,24.43c-.75,1.23-4.44,7-6.72,7a1,1,0,0,1-.42-.09c-1-.36-1.26-1.8-.84-4.59a11.55,11.55,0,0,1-1.76,2c-1.06.9-1.78.45-2,.24-1.08-.9-1-3.51.23-5.58a.65.65,0,0,1,.82-.21.6.6,0,0,1,.21.78c-1.05,1.8-1,3.75-.54,4.11.14.12.5-.15.57-.21a11.61,11.61,0,0,0,1.94-2.37c.66-.9,1-1.35,1.53-1.11s.48.9.27,2c-.6,3.45,0,3.78,0,3.78.49.21,2.91-1.83,5.73-6.42a.59.59,0,0,1,.81-.18A.55.55,0,0,1,145,24.43Z" style="fill:#f73848"/><path d="M156.83,24.1c-2,4.14-6.09,11.52-8.52,11.52a.83.83,0,0,1-.39-.09c-.84-.33-1.08-1.47-.78-3.72a56.78,56.78,0,0,1,2.22-8.58s-.06,0-.09,0c-1.23.81-3.27,2.16-4.89,1.08s-1.56-3.14-.09-5.39c.69-1.09,2.28-2.92,3.33-2.25.72.41,1,1.58-2,6.89.93.12,2.19-.72,3.06-1.29s1.35-.89,1.83-.54.24,1,.15,1.26c-3.36,10.41-2.31,11.4-2.28,11.46.72.09,4-3.63,7.44-10.86a.61.61,0,0,1,.78-.3A.57.57,0,0,1,156.83,24.1Zm-12.24-1.17c1.92-3.33,2.28-4.65,2.34-5.13a6.5,6.5,0,0,0-2.46,3.48A1.87,1.87,0,0,0,144.59,22.93Z" style="fill:#f73848"/><path d="M168.2,24.22c-1.5,3.09-3.66,6.63-5.73,6.63a1.35,1.35,0,0,1-.33,0c-1.35-.27-2.16-2-2.49-5.4A39.92,39.92,0,0,1,157,28.66c-.27.27-1,1.08-1.74.75-.48-.18-.72-.72-.69-1.56,0-2,1.59-6.44,3.9-7.26.72-.27,1.8-.29,2.94,1.05a.57.57,0,0,1-.06.81.56.56,0,0,1-.81-.06c-.93-1.11-1.62-.84-2.13-.48-1.8,1.29-2.88,5.31-2.7,6.36.09-.09.24-.21.42-.39a35.62,35.62,0,0,0,2.94-3.69l.54-.75a.6.6,0,0,1,1,.33c.24,5.22,1.35,5.85,1.68,5.91.78.18,2.52-1.29,4.77-5.94a.57.57,0,0,1,.78-.27A.59.59,0,0,1,168.2,24.22Z" style="fill:#f73848"/><path d="M170.69,14.32a.07.07,0,0,1-.06.07c-2.64,10.55-5.22,23.09-5.82,27.44h.06a.59.59,0,0,1,.36.75c-.27.78-.54,1.5-1,1.5a.59.59,0,0,1-.21,0c-.57-.18-.63-.6,0-4.14.36-2.1.9-5,1.62-8.46,1.53-7.31,3.42-15.42,4.95-21.17.51-1.95,2.31-8.34,4-8.61a.74.74,0,0,1,.81.36C176.12,3.2,174.62,8.12,170.69,14.32Zm3.69-11.06c-.57.81-1.56,2.85-2.7,7.11A22.51,22.51,0,0,0,174.38,3.26Z" style="fill:#f73848"/><path d="M184.49,24.07c-2.34,2.73-6,7.05-6.66,7.83-.36.45-.69.87-1,1.29a8.09,8.09,0,0,1-2.52,7.89,2.58,2.58,0,0,1-1.56.72,1.07,1.07,0,0,1-.75-.3c-1.32-1.29,1.23-5.37,3.57-8.55a7.81,7.81,0,0,0-1.05-2.22c-1.62-2.46-3-4.65-2.88-6.48a4.53,4.53,0,0,1,2.22-3.72,3.74,3.74,0,0,1,3.48-.33.63.63,0,0,1,.27.79.59.59,0,0,1-.78.27,2.53,2.53,0,0,0-2.37.26,3.33,3.33,0,0,0-1.65,2.79c-.09,1.47,1.2,3.57,2.67,5.76a11.22,11.22,0,0,1,.93,1.77c.18-.24.36-.45.51-.66.63-.78,4.35-5.13,6.69-7.86a.57.57,0,0,1,.87.75Zm-8.64,10.47c-2.76,3.93-3.18,5.7-3.06,6.09A3.64,3.64,0,0,0,174.68,39,7.2,7.2,0,0,0,175.85,34.54Z" style="fill:#f73848"/></svg>